# xmcd
#
# Track frame offsets:
#	150
#	10087
#	21812
#	34117
#	45419
#	60442
#	80086
#	91059
#	103684
#	120772
#	133749
#	148495
#	159399
#	171481
#
# Disc length: 2470 seconds
#
# Revision: 0
# Processed by: cddbd v1.4PL0 Copyright (c) Steve Scherf et al.
# Submitted via: EasyCDDAExtractor 4.6.9.1
#
DISCID=af09a40e
DTITLE=BR5-49 - Big Backyard Beat Show
DYEAR=1900
DGENRE=Country
TTITLE0=There Goes My Love
TTITLE1=Wild One
TTITLE2=Hurtin' Song
TTITLE3=Out Of Habit
TTITLE4=05 Storybook Endings (If You Stop Believin)
TTITLE5=18 Wheels And A Crowbar
TTITLE6=Pain, Pain Go Away
TTITLE7=You Are Never Nice To Me
TTITLE8=Goodbye, Maria
TTITLE9=Seven Nights To Rock
TTITLE10=My Name Is Mud
TTITLE11=You Flew The Coop
TTITLE12=Change The Way I Look
TTITLE13=Georgia On A Fast Train
EXTD=
EXTT0=
EXTT1=
EXTT2=
EXTT3=
EXTT4=
EXTT5=
EXTT6=
EXTT7=
EXTT8=
EXTT9=
EXTT10=
EXTT11=
EXTT12=
EXTT13=
PLAYORDER=
